<?xml version="1.0" encoding="UTF-8" standalone="no"?>
<!-- Created with Inkscape (http://www.inkscape.org/) -->

<svg
   width="210mm"
   height="210mm"
   viewBox="0 0 210 210"
   version="1.1"
   id="svg5"
   inkscape:version="1.1.2 (b8e25be833, 2022-02-05)"
   xmlns:inkscape="http://www.inkscape.org/namespaces/inkscape"
   xmlns:sodipodi="http://sodipodi.sourceforge.net/DTD/sodipodi-0.dtd"
   xmlns="http://www.w3.org/2000/svg"
   xmlns:svg="http://www.w3.org/2000/svg">
  <sodipodi:namedview
     id="namedview7"
     pagecolor="#ffffff"
     bordercolor="#666666"
     borderopacity="1.0"
     inkscape:pageshadow="2"
     inkscape:pageopacity="0.0"
     inkscape:pagecheckerboard="0"
     inkscape:document-units="mm"
     showgrid="false"
     inkscape:snap-object-midpoints="true"
     inkscape:snap-others="true"
     inkscape:object-nodes="true"
     inkscape:snap-nodes="true"
     inkscape:snap-global="true"
     showguides="false"
     inkscape:snap-intersection-paths="true"
     inkscape:snap-smooth-nodes="true"
     inkscape:object-paths="true"
     inkscape:zoom="0.77771465"
     inkscape:cx="184.51498"
     inkscape:cy="489.89691"
     inkscape:window-width="2560"
     inkscape:window-height="1385"
     inkscape:window-x="-8"
     inkscape:window-y="-8"
     inkscape:window-maximized="1"
     inkscape:current-layer="g8589"
     inkscape:snap-center="true"
     inkscape:snap-page="true"
     inkscape:snap-midpoints="true"
     inkscape:snap-bbox="true"
     inkscape:snap-bbox-midpoints="true"
     inkscape:snap-text-baseline="true"
     inkscape:bbox-paths="true"
     inkscape:bbox-nodes="true"
     inkscape:snap-bbox-edge-midpoints="true" />
  <defs
     id="defs2" />
  <g
     inkscape:label="Calque 1"
     inkscape:groupmode="layer"
     id="layer1">
    <g
       id="g8589"
       transform="translate(-19.485529,-7.2168615)">
      <rect
         style="fill:#6abcb7;fill-opacity:1;fill-rule:evenodd;stroke:none;stroke-width:3.38701"
         id="rect11387"
         width="160"
         height="160"
         x="45.735531"
         y="33.466858" />
      <circle
         style="fill:#6abcb7;fill-opacity:1;fill-rule:evenodd;stroke:none;stroke-width:13.4096"
         id="path8035"
         cx="125.73553"
         cy="113.46686"
         r="80" />
      <g
         id="g3222"
         transform="matrix(0.77518528,0,0,0.79747485,13.263402,39.953694)">
        <path
           style="fill:#eebb56;fill-opacity:1;stroke-width:0.264583"
           d="m 60.670235,149.88379 c 3.374391,-4.49284 3.257837,-4.29507 4.13993,-5.3891 0.882092,-1.09402 3.568334,-4.63685 5.969428,-7.87294 2.401094,-3.23609 9.462867,-12.63988 15.692828,-20.89731 6.229964,-8.25743 14.761259,-19.594367 18.958439,-25.193185 l 7.63124,-10.179672 0.10556,-5.563036 c 0.0996,-5.25009 0.14682,-5.682112 0.83903,-7.679705 0.40342,-1.164167 0.97093,-2.501289 1.26115,-2.97138 l 0.52767,-0.854715 -1.87153,-2.162228 c -2.39017,-2.761408 -3.48451,-4.420793 -4.93546,-7.483793 -1.67168,-3.528946 -3.16812,-9.501382 -3.69167,-14.733815 -0.37057,-3.703536 0.84305,-6.322193 2.93004,-6.322193 1.45965,0 3.94184,1.457931 6.08128,3.571875 2.19989,2.173684 3.59287,4.168536 5.09326,7.293929 1.23577,2.574168 2.841,4.271958 4.46556,4.723051 1.34111,0.372387 1.82063,0.359058 2.16865,-0.06028 0.15812,-0.190533 0.69953,-3.434986 1.20312,-7.209895 0.50359,-3.77491 1.03192,-7.16784 1.17407,-7.539845 0.72203,-1.889542 2.92249,-3.407847 4.95492,-3.418858 1.32495,-0.0072 3.52704,1.050157 4.25475,2.042923 0.93007,1.268844 1.1126,2.280912 1.694,9.392401 0.31239,3.821073 0.6811,7.395453 0.81937,7.943067 0.30956,1.225993 1.6516,2.798844 2.79619,3.277083 1.50414,0.628468 3.51592,0.461104 4.88364,-0.406278 2.04364,-1.296034 2.21147,-1.911802 2.94713,-10.812746 0.6247,-7.558413 0.65767,-7.769015 1.4048,-8.975291 2.21845,-3.581785 7.79456,-3.191851 9.45605,0.661257 0.23071,0.535048 0.83131,4.095229 1.33466,7.911513 0.50335,3.816284 0.9906,7.060737 1.08279,7.209895 0.2932,0.474412 1.57518,0.293521 3.01907,-0.426002 1.63403,-0.814271 2.61616,-2.031048 3.92043,-4.857063 1.2264,-2.657318 2.78249,-4.781298 5.15168,-7.031799 2.18632,-2.076793 4.31955,-3.288938 5.78815,-3.288938 2.92733,0 3.62053,4.295803 1.96131,12.154314 -1.59045,7.532788 -3.79055,12.11276 -8.05053,16.758904 l -1.40178,1.528847 0.94124,2.059091 c 1.81017,3.960024 1.79999,3.797123 1.714,27.426966 l -0.077,21.166671 -0.62406,1.85208 c -1.36509,4.05128 -3.21366,6.45551 -7.81867,10.16886 -3.7474,3.0218 -4.05065,3.3634 -5.38819,6.06963 l -0.98363,1.99016 -0.14584,5.43776 c -0.13748,5.12579 -0.18507,5.52306 -0.82952,6.92472 -0.92186,2.00503 -2.33729,3.5061 -4.14154,4.39213 l -1.49768,0.73549 h -10.18646 c -9.16944,0 -10.32436,-0.0481 -11.56765,-0.48167 -1.83627,-0.64037 -3.82802,-2.46652 -4.75485,-4.35952 -0.71835,-1.4672 -0.74244,-1.65964 -0.87322,-6.97702 -0.074,-3.00752 -0.22577,-5.55942 -0.33734,-5.6709 -0.34181,-0.34156 -0.59215,0.12322 -2.79331,5.18598 -2.88821,6.64301 -5.72407,13.02865 -6.63882,14.94896 -0.41592,0.87313 -1.44188,3.19484 -2.27992,5.15938 -1.78283,4.17932 -2.45044,5.1722 -3.92938,5.84382 -1.04255,0.47344 -2.34909,0.4948 -30.597364,0.50036 -2.020387,0.0576 -5.865007,-0.0548 -7.701763,-0.56924 -1.725753,-0.48332 -1.46997,-1.32506 -2.578898,-2.60716 z"
           id="path3236"
           sodipodi:nodetypes="csssscssscsssssssssscsssssssssssssssscsscssscssscssssssssscssc" />
        <path
           style="fill:#e4ae4c;fill-opacity:1;stroke-width:0.264583"
           d="m 60.670235,149.88379 c 3.653871,-4.85322 3.688272,-4.57541 3.854323,-4.52646 0.458242,0.13508 1.689174,2.76469 2.199336,4.69838 0.608158,2.30513 7.804488,12.47561 7.194679,14.77085 -5.370839,-4.71779 -9.746675,-11.1988 -13.248338,-14.94277 z m 55.339465,2.20036 c -2.90993,-2.29809 -5.06167,-5.57047 -5.9372,-9.02934 -0.51594,-2.03831 -0.51094,-5.95106 0.0102,-7.95861 0.4995,-1.92426 1.50535,-4.17261 2.37931,-5.31844 0.65453,-0.85812 0.87385,-1.94705 0.39216,-1.94705 -0.49121,0 -3.21475,-3.5773 -4.12946,-5.42395 -1.82147,-3.67725 -1.78448,-3.31439 -1.89333,-18.57629 -0.0751,-10.537926 -0.0218,-13.957491 0.22497,-14.419787 0.17791,-0.333306 1.58366,-2.272884 3.12388,-4.310176 l 2.80041,-3.704166 0.1615,-5.953125 c 0.1772,-6.532083 0.4549,-7.973922 2.15469,-11.18712 l 0.80928,-1.529831 -0.74101,-0.773454 c -0.71988,-0.751393 -0.72824,-0.792951 -0.29302,-1.457179 0.2464,-0.37605 1.78162,-2.085642 3.41161,-3.799091 2.365,-2.48609 3.22013,-3.604421 4.23354,-5.536558 1.25839,-2.399218 1.2776,-2.419733 2.11666,-2.260142 0.46571,0.08858 0.8856,0.192718 0.93307,0.231421 0.0692,0.05644 -0.76257,2.207381 -1.43953,3.722432 -0.073,0.163314 0.45881,0.731127 1.18175,1.261808 7.37639,5.414774 12.21,17.942746 12.21,31.646464 0,18.788374 -9.02031,34.370214 -19.90989,34.392694 -0.83675,0.002 -1.52136,0.11496 -1.52136,0.25163 0,0.27736 1.96623,2.6147 2.62171,3.11653 0.23155,0.17727 0.58305,0.3261 0.78112,0.33073 0.40512,0.009 4.53163,3.24342 5.67644,4.44864 l 0.7449,0.7842 2.69584,-1.36978 c 7.76967,-3.94781 16.96536,-4.88834 25.561,-2.61436 4.035,1.06745 3.81501,1.07399 5.41588,-0.16107 2.65882,-2.05126 5.45365,-5.41788 5.44922,-6.56406 -0.001,-0.25756 -0.4215,-0.75411 -0.93445,-1.10346 -0.51296,-0.34935 -1.60544,-1.36139 -2.42773,-2.24896 -11.42222,-12.32908 -12.80447,-39.236864 -2.81846,-54.866309 0.48993,-0.76681 0.88776,-1.540716 0.88406,-1.719791 -0.004,-0.179076 -0.60103,-1.039966 -1.32742,-1.913091 -1.6043,-1.928402 -3.1884,-4.914725 -3.92975,-7.408333 -0.30285,-1.018646 -0.97421,-5.060851 -1.49192,-8.982677 -0.92908,-7.038063 -0.93481,-7.139349 -0.4413,-7.805208 0.27499,-0.371038 0.93617,-0.921773 1.46927,-1.223856 0.53311,-0.302083 0.90332,-0.615213 0.82269,-0.695844 -0.26423,-0.264227 1.70851,-0.502744 2.66853,-0.322643 0.51611,0.09682 0.87295,0.241474 0.79297,0.321448 -0.08,0.07998 0.32086,0.423453 0.89073,0.763286 1.67656,0.999778 2.0072,2.038363 2.93347,9.214244 0.79361,6.148174 1.11472,7.933648 1.58849,8.832415 0.12408,0.235401 0.58525,1.231673 1.0248,2.213939 0.43956,0.982265 0.91879,1.785937 1.06497,1.785937 0.14617,0 0.65184,0.565547 1.12371,1.256771 0.47186,0.691224 2.11845,2.566458 3.65909,4.167187 2.38524,2.478281 2.98376,3.283625 4.03101,5.423958 2.16698,4.428802 2.06111,3.011041 2.05757,27.554856 -0.003,17.691601 -0.0719,22.048151 -0.36866,23.162831 -0.4621,1.73564 -2.00661,5.10939 -2.33909,5.10939 -0.13822,0 -0.92427,0.73129 -1.74677,1.62509 -0.8225,0.8938 -2.95262,2.80245 -4.7336,4.24145 -2.26532,1.83034 -3.29005,2.83251 -3.41092,3.33585 -0.095,0.39572 -0.46557,1.22669 -0.82344,1.84661 -1.2278,2.12686 -1.44906,3.34384 -1.62303,8.92704 -0.15212,4.88178 -0.21454,5.39256 -0.80595,6.59419 -0.85629,1.73983 -2.3948,3.22946 -4.21458,4.08069 -1.35377,0.63324 -1.84283,0.70667 -5.19852,0.78048 -2.03729,0.0448 -6.79979,-0.0211 -10.58334,-0.14638 -6.35472,-0.21048 -6.96573,-0.27288 -8.01462,-0.81846 -1.61959,-0.84242 -3.17538,-2.5017 -3.96706,-4.23095 -0.64095,-1.40002 -0.69211,-1.82012 -0.8329,-6.83924 -0.10261,-3.65834 -0.25137,-5.44887 -0.4709,-5.66819 -0.25136,-0.25113 -0.37404,-0.18227 -0.56618,0.3178 -0.23544,0.61279 -3.13316,7.22658 -6.7134,15.32277 -2.01648,4.55996 -2.14671,4.64252 -4.4517,2.82219 z M 84.133055,134.97741 c -3.146483,-0.43925 -7.958725,-2.52577 -8.603371,-3.7303 -0.342147,-0.63931 -1.223738,0.60502 11.881193,-16.76977 6.44362,-8.54309 10.045663,-13.10496 10.347645,-13.10496 1.24823,0 4.644758,4.03742 6.104058,7.25585 1.29807,2.86283 1.65098,4.86173 1.49836,8.48686 -0.18997,4.5126 -1.34748,7.6196 -4.13992,11.1125 -3.900884,4.87937 -10.843164,7.6216 -17.087965,6.74982 z M 116.25377,54.802426 c -0.56645,-0.330886 -4.39067,-5.32625 -4.69962,-6.138852 -0.78415,-2.062473 1.65267,-4.131094 3.58434,-3.042752 0.53708,0.3026 3.98132,4.609826 4.57852,5.725701 0.88806,1.659346 -0.26941,3.730935 -2.0761,3.715732 -0.52586,-0.0044 -1.15008,-0.121348 -1.38714,-0.259829 z m 54.66934,-0.370797 c -0.81302,-0.813022 -1.07682,-1.859876 -0.68524,-2.719295 0.59591,-1.30789 4.36023,-5.954269 5.03032,-6.209037 2.16515,-0.823189 4.2655,1.484723 3.18632,3.501198 -0.44551,0.832437 -3.94212,5.333062 -4.43334,5.706313 -0.77076,0.585664 -2.37805,0.440823 -3.09806,-0.279179 z"
           id="path3234"
           sodipodi:nodetypes="cssccsssssscsscsscssssssccscsscscssssscscsssssssssssssssscsssssssssscsssssssssssssssssssscsssssss" />
        <path
           style="fill:#daaf8f;stroke-width:0.264583"
           d="m 60.670235,149.88379 c -19.116984,-106.65827 -9.558492,-53.329135 0,0 z m 55.882275,2.2075 c -4.28908,-3.38126 -6.30671,-7.14954 -6.54396,-12.22204 -0.14594,-3.12022 0.29842,-5.39145 1.53349,-7.83812 1.19055,-2.35847 2.7881,-4.60186 3.90355,-5.48165 1.55567,-1.227 3.55295,-2.42293 4.04644,-2.42293 0.47308,0 6.05631,4.38706 6.05631,4.75878 0,0.61647 1.0112,0.41886 2.6717,-0.52208 2.51591,-1.42568 6.18327,-2.76274 9.5106,-3.46741 2.15872,-0.45718 3.69687,-0.59028 6.99999,-0.60573 4.48647,-0.021 6.83865,0.27259 10.31875,1.28787 1.16417,0.33963 2.53339,0.69968 3.04271,0.80011 1.3137,0.25903 5.74283,2.45521 5.92877,2.93978 0.0855,0.22278 -0.15396,0.933 -0.53211,1.57826 -1.26413,2.15707 -1.48467,3.34927 -1.6599,8.97312 -0.15212,4.88178 -0.21454,5.39256 -0.80595,6.59419 -0.85629,1.73983 -2.3948,3.22946 -4.21458,4.08069 -1.35377,0.63324 -1.84283,0.70667 -5.19852,0.78048 -2.03729,0.0448 -6.79979,-0.0211 -10.58334,-0.14638 -6.35472,-0.21048 -6.96573,-0.27288 -8.01462,-0.81846 -1.61959,-0.84242 -3.17538,-2.5017 -3.96706,-4.23095 -0.64095,-1.40002 -0.69211,-1.82012 -0.8329,-6.83924 -0.10261,-3.65834 -0.25137,-5.44887 -0.4709,-5.66819 -0.25136,-0.25113 -0.37404,-0.18227 -0.56618,0.3178 -0.23995,0.6245 -3.32906,7.67336 -6.71509,15.32277 -0.93402,2.11005 -1.86782,3.86798 -2.07511,3.90649 -0.20729,0.0385 -1.03173,-0.4462 -1.83209,-1.07716 z M 84.448105,134.66456 c -2.521762,-0.30946 -5.563566,-1.38111 -7.51695,-2.64828 -0.909505,-0.59 -1.653646,-1.14862 -1.653646,-1.24137 0,-0.0928 0.626968,-1.00151 1.393262,-2.01945 16.508261,-21.92936 20.6826,-27.38308 20.959317,-27.38308 0.182258,0 1.228008,0.93849 2.323891,2.08554 5.511291,5.76861 6.776321,13.94881 3.259221,21.07557 -2.66921,5.40868 -8.49569,9.59543 -14.005172,10.06374 -0.895067,0.0761 -1.92505,0.17232 -2.288852,0.21386 -0.363803,0.0416 -1.475785,-0.0244 -2.471071,-0.14653 z m 85.091065,-14.91464 c -0.76187,-0.20518 -1.9525,-0.66116 -2.64584,-1.01329 -1.77265,-0.90028 -5.5392,-4.51579 -7.18573,-6.89759 -8.04948,-11.64397 -9.36563,-32.357303 -2.96831,-46.714573 0.68083,-1.527969 1.79952,-3.64504 2.48596,-4.704604 0.68645,-1.059564 1.24809,-2.015045 1.24809,-2.123289 0,-0.506772 4.77979,-4.813773 5.34219,-4.813773 0.10855,0 0.69826,0.684609 1.31046,1.521354 0.6122,0.836744 2.43822,2.902092 4.05783,4.58966 2.28266,2.378454 3.16056,3.508703 3.9047,5.027083 1.85447,3.783947 1.78933,2.799083 1.78584,27.000091 -0.003,17.848701 -0.0702,22.042051 -0.3742,23.183851 -0.44293,1.66386 -1.90205,4.85962 -2.34835,5.14333 -0.5042,0.32052 -3.10073,0.20892 -4.61264,-0.19825 z m -53.71439,-0.17403 c -0.57096,-0.68796 -1.66831,-3.41658 -2.04077,-5.07445 -0.28901,-1.28644 -0.37936,-6.08347 -0.43916,-23.315516 l -0.0753,-21.695833 0.61327,-1.852083 c 1.19626,-3.612724 1.75453,-4.433641 6.1165,-8.994124 1.53195,-1.601668 3.05971,-3.35861 3.39502,-3.904313 0.33531,-0.545703 0.75092,-0.992187 0.92357,-0.992187 0.17266,0 0.99673,0.565547 1.83127,1.256771 4.48013,3.710778 7.91987,10.039024 9.83889,18.101041 1.06628,4.479547 1.33396,7.129587 1.31855,13.053645 -0.0119,4.553714 -0.12285,6.171199 -0.61524,8.964416 -1.42175,8.065243 -4.2608,14.664503 -8.3224,19.345083 -1.56056,1.79839 -4.47909,3.8902 -6.48954,4.65128 -1.92957,0.73046 -5.5977,1.00688 -6.05467,0.45627 z m 0.83412,-64.763531 c -0.30529,-0.123419 -1.33224,-1.219682 -2.28212,-2.436138 -3.10776,-3.979925 -3.33928,-4.622956 -2.16638,-6.01687 0.53802,-0.639397 0.89281,-0.812788 1.65365,-0.808167 0.53276,0.0032 1.22061,0.211595 1.52854,0.463021 0.89031,0.726937 4.27746,5.413637 4.46878,6.183328 0.24641,0.991292 -0.46387,2.222408 -1.48822,2.579499 -0.9635,0.335875 -0.97047,0.336019 -1.71425,0.03533 z m 54.86744,-0.154492 c -0.39652,-0.215185 -0.843,-0.619309 -0.99218,-0.898054 -0.60926,-1.138409 -0.30608,-1.960292 1.7144,-4.647552 2.38397,-3.170693 2.82933,-3.56696 4.00882,-3.56696 0.99599,0 2.18475,0.942212 2.23809,1.773911 0.0736,1.147774 -0.19886,1.69124 -2.18381,4.3557 -1.50049,2.014155 -2.33791,2.904368 -2.9245,3.108854 -1.0081,0.351425 -0.97742,0.353501 -1.86082,-0.125899 z"
           id="path3232"
           sodipodi:nodetypes="ccssssssssssssssssscssssssssssscsssscssscsssssssccssssscsssssscsssssssscsssssssssssss" />
        <path
           style="fill:#c98a5d;fill-opacity:1;stroke-width:0.264583"
           d="m 60.670049,149.88354 c 0,0 1.86e-4,2.5e-4 0,4.1e-4 z m 55.604231,1.92914 c -5.91134,-4.6407 -7.97123,-12.70523 -4.93175,-19.30805 1.00304,-2.17896 3.00144,-5.08613 4.08229,-5.9387 1.57417,-1.24169 3.57109,-2.43938 4.06721,-2.43938 0.47308,0 6.05631,4.38706 6.05631,4.75878 0,0.61837 1.02415,0.42011 2.76482,-0.53522 5.62876,-3.08925 12.90797,-4.54024 19.7825,-3.94332 4.28404,0.37199 10.65068,1.9786 13.56839,3.42396 1.23688,0.61273 2.24887,1.2651 2.24887,1.44972 0,0.18462 -0.29455,0.86269 -0.65456,1.50682 -1.37407,2.45848 -1.52174,3.23263 -1.70708,8.94967 -0.16746,5.1654 -0.20898,5.48782 -0.87092,6.76367 -0.83602,1.61134 -2.47868,3.15438 -4.14339,3.8921 -1.60818,0.71266 -4.21228,0.81159 -13.92301,0.52892 -7.45382,-0.21697 -7.71497,-0.2428 -9.14574,-0.90466 -1.74981,-0.80945 -3.1598,-2.18571 -3.9796,-3.88439 -0.53452,-1.10759 -0.61628,-1.8008 -0.78553,-6.66022 -0.10389,-2.98318 -0.2763,-5.69761 -0.38312,-6.03208 -0.4113,-1.28785 -1.02214,-0.43203 -3.07793,4.31229 -1.13501,2.61938 -2.65095,5.95312 -3.36875,7.40833 -0.7178,1.45521 -1.80487,3.80669 -2.4157,5.22552 -0.61084,1.41883 -1.24648,2.57961 -1.41254,2.57952 -0.16605,-9e-5 -0.9629,-0.51907 -1.77077,-1.15328 z M 82.220536,134.1946 c -3.42982,-0.92922 -6.55981,-2.60929 -6.347053,-3.40689 0.151915,-0.56952 21.562401,-28.98586 21.938519,-29.11716 0.453419,-0.15829 3.700118,3.41701 4.790508,5.27536 0.54942,0.93638 1.31375,2.65501 1.69849,3.81918 0.60993,1.84551 0.7003,2.55729 0.70546,5.55625 0.005,3.0792 -0.0708,3.66136 -0.72577,5.55625 -2.07373,5.99897 -6.097639,10.01054 -12.075558,12.03853 -2.514801,0.85315 -7.364211,0.9884 -9.984596,0.27848 z m 87.314954,-14.44562 c -2.1215,-0.57127 -3.4539,-1.34711 -5.60417,-3.26324 -3.42459,-3.05169 -5.73348,-6.46001 -7.7014,-11.36862 -2.31452,-5.773148 -3.4295,-12.050924 -3.4295,-19.309501 0,-6.572556 0.74897,-11.554374 2.54342,-16.917798 0.97197,-2.905099 2.92738,-7.005219 4.31944,-9.057021 0.44429,-0.654844 0.8083,-1.312666 0.80893,-1.461831 0.002,-0.563377 4.72984,-4.888168 5.34332,-4.888168 0.10855,0 0.69739,0.684609 1.30852,1.521354 0.61113,0.836744 2.37106,2.84309 3.91095,4.458543 2.41401,2.532478 2.93468,3.243387 3.7787,5.159375 1.88316,4.274902 1.79922,3.017065 1.79922,26.960726 0,23.431661 0.0313,22.877421 -1.48004,26.186571 -0.97504,2.13488 -1.28448,2.39137 -2.86045,2.37101 -0.74142,-0.01 -1.97305,-0.18571 -2.73694,-0.3914 z m -53.55324,-0.12752 c -0.58539,-0.34172 -1.94902,-3.68372 -2.35699,-5.77651 -0.25229,-1.29421 -0.29227,-6.48588 -0.17319,-22.489585 0.17466,-23.473038 0.0827,-22.395025 2.31395,-27.124502 0.95202,-2.017951 1.52407,-2.781988 4.061,-5.423958 1.62409,-1.691331 3.22831,-3.521631 3.56493,-4.067334 0.33663,-0.545703 0.71071,-0.992187 0.83129,-0.992187 0.37147,0 2.71353,1.964756 4.03061,3.38129 6.30293,6.778839 9.9504,20.176082 8.95493,32.891638 -1.05199,13.437458 -6.47985,24.537908 -13.84143,28.306948 -2.63793,1.35059 -6.21473,1.9774 -7.3851,1.2942 z m 0.69757,-64.922072 c -0.48652,-0.210665 -1.52913,-1.317592 -2.66735,-2.831894 -2.86716,-3.814505 -3.0042,-4.258242 -1.71365,-5.548796 0.55682,-0.556822 1.0298,-0.773397 1.689,-0.773397 1.03971,0 1.68626,0.614761 4.30312,4.091574 1.78452,2.370954 1.99421,3.423297 0.89417,4.487424 -0.86432,0.8361 -1.54281,0.991848 -2.50529,0.575089 z m 54.90885,-0.09252 c -1.01082,-0.506514 -1.49374,-1.477056 -1.23932,-2.490726 0.20804,-0.828924 4.2258,-6.178386 4.80816,-6.40186 1.6637,-0.638421 3.30749,0.412475 3.30749,2.114516 0,1.683179 -4.50337,7.247138 -5.86082,7.241091 -0.0508,-2.26e-4 -0.50774,-0.208585 -1.01551,-0.463021 z"
           id="path3230"
           sodipodi:nodetypes="cccssssssssssssssssssssscsssssccsssssssscsssssscssssssssssssssssssssssssss" />
        <path
           style="fill:#c17c4d;stroke-width:0.264583"
           d="m 146.97959,150.76556 c 0,-0.0717 0.51945,-0.43482 1.15434,-0.80689 1.44429,-0.8464 2.70395,-2.26486 3.41408,-3.84447 0.44991,-1.00079 0.5683,-1.91346 0.66421,-5.12047 0.0642,-2.14643 0.0425,-3.9026 -0.0481,-3.9026 -0.0907,0 -0.50528,0.381 -0.92135,0.84667 -1.46066,1.63476 -4.00451,0.77116 -3.99377,-1.35581 0.006,-1.13152 2.08062,-4.87016 2.9658,-5.34389 0.70456,-0.37707 2.02617,-0.36855 2.41026,0.0155 0.4816,0.48161 0.8308,0.31473 1.34694,-0.64369 0.72048,-1.33785 3.4266,-3.83756 4.15444,-3.83756 0.7026,0 5.52195,2.28525 5.52195,2.61841 0,0.12395 -0.31103,0.78185 -0.69117,1.462 -1.27541,2.28195 -1.48271,3.40902 -1.65839,9.01646 -0.15433,4.9258 -0.21086,5.38003 -0.81764,6.56955 -0.78356,1.53608 -2.28193,2.9454 -3.94417,3.70975 -1.04599,0.48098 -1.82615,0.57577 -5.39019,0.65489 -2.29196,0.0509 -4.16719,0.0338 -4.16719,-0.0379 z m -24.96083,-9.64695 c -0.33031,-5.04023 -1.71267,-7.40879 -6.59073,-11.29267 -0.69123,-0.55035 -1.25677,-1.15477 -1.25677,-1.34316 0,-0.6538 4.51732,-4.09165 5.37642,-4.09165 0.25155,0 5.2837,4.101 6.0431,4.92488 0.38714,0.42001 0.94929,1.24009 1.24921,1.82239 l 0.54532,1.05872 -2.3938,5.55586 c -1.31658,3.05572 -2.48554,5.65071 -2.59769,5.76663 -0.11214,0.11593 -0.28092,-0.96452 -0.37506,-2.401 z m 17.68479,-2.54539 c -1.01775,-0.44784 -3.30729,-4.20868 -3.30729,-5.43261 0,-1.87475 2.62775,-2.91258 3.89818,-1.53958 0.73971,0.79943 2.3732,3.62954 2.58733,4.4827 0.2452,0.97693 -0.47136,2.21116 -1.48987,2.56621 -0.4627,0.1613 -0.85327,0.28861 -0.86794,0.28292 -0.0147,-0.006 -0.38385,-0.16753 -0.82041,-0.35964 z m 31.00097,-18.95684 c -1.50482,-0.25264 -3.58628,-0.96984 -4.27387,-1.47261 -0.46932,-0.34318 -0.4641,-0.42362 0.148,-2.2797 l 0.63449,-1.92398 0.0785,-21.471919 c 0.0873,-23.879094 0.10512,-23.586108 -1.65729,-27.297233 -1.00306,-2.112174 -1.95042,-3.462157 -3.75667,-5.353248 l -1.15164,-1.205735 0.95786,-1.229456 c 0.96159,-1.234245 3.49855,-3.370532 4.0027,-3.370532 0.14829,0 0.93661,0.863203 1.75182,1.918229 0.81521,1.055026 2.42579,2.838619 3.57907,3.963538 1.62387,1.583938 2.36687,2.568715 3.29381,4.365625 2.13319,4.135246 2.03702,2.853475 2.03702,27.150169 0,14.929572 -0.0914,22.010492 -0.29663,22.980562 -0.36658,1.73274 -1.68392,4.72718 -2.27548,5.17239 -0.4843,0.36449 -1.15195,0.37621 -3.07171,0.0539 z M 125.41605,94.915884 c -1.73192,-0.764487 -2.42621,-2.61195 -2.09521,-5.57522 0.14608,-1.307838 0.32616,-1.730277 1.04328,-2.447396 0.757,-0.757002 1.04089,-0.866719 2.24255,-0.866719 1.20167,0 1.48555,0.109717 2.24256,0.866719 0.71711,0.717119 0.89719,1.139558 1.04328,2.447396 0.21331,1.90968 -0.13257,3.913359 -0.80606,4.669438 -0.51004,0.572579 -1.93703,1.284835 -2.53742,1.266507 -0.18658,-0.0057 -0.69642,-0.168023 -1.13298,-0.360725 z m 36.71614,-0.02119 c -1.417,-0.616011 -1.92158,-1.764083 -1.9207,-4.370231 5.3e-4,-1.778193 0.10782,-2.411375 0.51223,-3.024867 0.67654,-1.02629 1.49806,-1.452266 2.82279,-1.463673 2.1335,-0.01837 3.27683,1.615454 3.27683,4.682612 0,2.159204 -0.55983,3.383174 -1.8684,4.084968 -1.06776,0.572648 -1.67048,0.592119 -2.82275,0.0912 z M 116.62244,54.464625 c -0.32533,-0.184209 -1.32369,-1.284149 -2.21856,-2.444312 -2.89099,-3.748012 -3.12238,-4.403056 -1.96444,-5.560997 0.91092,-0.910922 2.21693,-0.877926 3.0941,0.07817 1.58997,1.73303 3.93704,5.065372 4.08351,5.797709 0.2996,1.497988 -1.65504,2.887905 -2.99461,2.129428 z m 55.09569,0.02792 c -1.16043,-0.679534 -1.49489,-1.79373 -0.88414,-2.945369 0.37661,-0.71013 3.31811,-4.599385 3.97665,-5.257926 0.65266,-0.652665 2.18482,-0.625991 2.86061,0.0498 0.52503,0.525022 0.64338,0.966112 0.53247,1.984375 -0.0555,0.50935 -3.28551,4.961934 -4.19204,5.778722 -0.63453,0.57171 -1.68003,0.74967 -2.29355,0.390398 z"
           id="path3228" />
        <path
           style="fill:#525a55;stroke-width:0.264583"
           d="m 139.94408,138.40054 c -0.27782,-0.10374 -0.70171,-0.41103 -0.942,-0.68287 -0.79151,-0.89544 -2.34124,-3.96499 -2.34124,-4.63729 0,-1.38746 2.0942,-2.33878 3.25659,-1.47935 0.78986,0.58398 2.64251,3.98824 2.65666,4.88163 0.0224,1.41185 -1.33481,2.40154 -2.63001,1.91788 z m 8.71019,-0.11971 c -1.46448,-0.61577 -1.52452,-1.9051 -0.19503,-4.18789 0.52277,-0.89761 1.19837,-1.89991 1.50133,-2.22733 0.68413,-0.73936 2.01657,-0.786 2.86346,-0.10024 0.96985,0.78535 0.79412,1.95921 -0.64514,4.3095 -1.40523,2.29472 -2.17208,2.77466 -3.52462,2.20596 z M 125.38385,94.642197 c -1.38697,-0.603642 -1.68759,-1.303616 -1.68759,-3.929414 0,-3.339309 0.70655,-4.409885 2.91041,-4.409885 2.20387,0 2.91042,1.070576 2.91042,4.409885 0,2.653598 -0.30316,3.337869 -1.74587,3.940672 -1.07464,0.449014 -1.33262,0.447796 -2.38737,-0.01124 z m 36.7957,-0.03031 c -1.32061,-0.651756 -1.70621,-1.605663 -1.70621,-4.220852 0,-2.263751 0.0145,-2.315202 0.89958,-3.200323 0.74906,-0.749054 1.09339,-0.899584 2.0578,-0.899584 2.17385,0 3.12874,1.350711 3.12705,4.423272 -0.001,2.066563 -0.55009,3.238326 -1.82626,3.898257 -0.98294,0.508302 -1.5208,0.508141 -2.55196,-7.93e-4 z M 116.60421,54.36109 c -0.18985,-0.07605 -1.29118,-1.394765 -2.4474,-2.930485 -2.39003,-3.174492 -2.64547,-4.096655 -1.40508,-5.072351 1.37278,-1.07983 2.07837,-0.645831 4.83518,2.974076 1.36511,1.792508 1.87601,2.680528 1.87601,3.260795 0,1.375141 -1.50924,2.308527 -2.85871,1.767965 z m 55.04221,0.003 c -0.64851,-0.260926 -1.13771,-1.591121 -0.85684,-2.32986 0.50374,-1.324935 4.22007,-5.945682 4.92403,-6.122367 1.40668,-0.353053 2.74095,0.966138 2.39029,2.363273 -0.16459,0.65578 -3.62151,5.325367 -4.38772,5.926894 -0.4166,0.327065 -1.45716,0.408539 -2.06976,0.16206 z"
           id="path3226" />
        <path
           style="fill:#323c3c;stroke-width:0.264583"
           d="m 139.04386,137.05159 c -0.43741,-0.60383 -1.10685,-1.73468 -1.48765,-2.513 -0.66214,-1.35337 -0.67302,-1.44464 -0.24928,-2.09135 1.06624,-1.62729 2.19088,-1.20314 3.71541,1.40122 1.33805,2.28578 1.49149,3.2694 0.60671,3.88913 -1.00295,0.70249 -1.71654,0.51313 -2.58519,-0.686 z m 9.25865,0.56871 c -0.72903,-0.72903 -0.67297,-1.14792 0.42195,-3.15303 1.18532,-2.17063 1.87811,-2.93239 2.66687,-2.93239 0.79004,0 1.67368,0.88266 1.67368,1.67183 0,0.59778 -1.52216,3.34375 -2.44481,4.41044 -0.58839,0.68024 -1.63917,0.68167 -2.31769,0.003 z M 116.46437,53.681238 c -1.22068,-1.123479 -4.1452,-5.260117 -4.1452,-5.863248 0,-1.206809 1.71241,-1.937977 2.68913,-1.14821 0.49497,0.400221 3.44544,4.316035 3.90605,5.184018 0.45188,0.851539 0.14164,1.86021 -0.66667,2.167527 -0.9346,0.355335 -1.05207,0.332932 -1.78331,-0.340087 z m 55.18034,0.183435 c -1.07327,-0.751745 -0.77597,-1.684097 1.48669,-4.662397 1.88753,-2.484522 2.16064,-2.738257 3.02677,-2.8121 0.78119,-0.0666 1.03285,0.04217 1.40238,0.60615 0.57028,0.870351 0.39296,1.288351 -1.77814,4.191718 -2.41086,3.223986 -2.90233,3.541915 -4.1377,2.676629 z"
           id="path3224" />
      </g>
      <g
         id="g3545"
         transform="matrix(0.77518528,0,0,0.79747146,-39.861611,71.413161)">
        <path
           style="fill:#fdd822;fill-opacity:1;stroke-width:0.191288"
           d="m 180.97964,23.898236 c -1.81698,-0.409669 -3.25587,-1.51244 -3.99119,-3.058856 -0.53743,-1.130234 -9.7465,-44.607433 -9.75261,-46.043272 -0.01,-2.443018 1.55459,-4.412572 4.14519,-5.216864 1.25913,-0.390921 2.72249,-0.289524 3.97004,0.275086 0.47871,0.216652 3.9748,2.687181 7.76909,5.490063 4.89592,3.616666 7.17186,5.184487 7.83951,5.400422 1.82832,0.591324 4.02898,0.335601 5.66464,-0.658247 0.39396,-0.239374 3.487,-3.496291 6.87342,-7.237591 3.38644,-3.741299 6.4097,-7.028494 6.71837,-7.304878 1.97914,-1.772089 5.62255,-1.772089 7.6017,0 0.30867,0.276384 3.33192,3.563579 6.71836,7.304878 3.38642,3.7413 6.47945,6.998217 6.87342,7.237591 1.71142,1.039881 3.94752,1.264804 5.81724,0.585133 0.72698,-0.264269 3.14669,-1.933808 8.07289,-5.570119 7.75491,-5.724335 8.17022,-5.95567 10.27119,-5.721286 2.00195,0.223335 3.87655,1.413593 4.64396,2.948596 0.43732,0.874779 0.72217,2.323128 0.5971,3.036027 -0.054,0.307505 -2.17367,10.455138 -4.71048,22.5502977 -3.08034,14.6865403 -4.75974,22.3010963 -5.05603,22.9241633 -0.57186,1.202649 -1.5108,2.083098 -2.8641,2.685704 l -1.08106,0.481385 -32.69066,0.02923 c -18.66182,0.01668 -33.00794,-0.0423 -33.42999,-0.137465 z"
           id="path3547" />
      </g>
    </g>
  </g>
</svg>
